<svg width="154" height="34" viewBox="0 0 154 34" fill="none" xmlns="http://www.w3.org/2000/svg">
<g clip-path="url(#clip0_1_38)">
<path fill-rule="evenodd" clip-rule="evenodd" d="M20.053 11.6428H20.0359H19.9768C20.0339 12.036 20.0466 12.4343 20.0147 12.8304L20.1214 12.866L20.1297 12.8683L20.1801 12.8835L20.3187 12.9228C20.4175 12.9506 20.5166 12.9771 20.6157 13.0023C20.8144 13.0538 21.0146 13.1009 21.2163 13.1438C21.5619 13.2177 21.9093 13.2825 22.2609 13.3287C22.387 13.3458 22.514 13.3601 22.6406 13.3717C22.5547 13.2469 22.4655 13.1244 22.3718 13.0046C22.3256 12.9458 22.2784 12.8878 22.2304 12.8308C22.2207 12.8188 22.1953 12.7901 22.1703 12.7615L22.1361 12.7259C22.0844 12.6732 22.032 12.6217 21.9791 12.5715C21.7783 12.3919 21.5684 12.2228 21.3503 12.0649C21.2962 12.0334 21.2417 12.0029 21.1863 11.9724C21.0689 11.9108 20.9488 11.8555 20.8259 11.8065C20.801 11.7968 20.77 11.7815 20.7377 11.7667L20.6693 11.7478C20.5387 11.7136 20.4064 11.6863 20.2729 11.6659C20.1999 11.659 20.1265 11.6488 20.053 11.6428Z" fill="white"/>
<path fill-rule="evenodd" clip-rule="evenodd" d="M23.0348 0.0242895L4.3912 1.9875C1.96576 2.23989 0 4.41389 0 6.84121V10.4172C0.169369 10.3625 0.347994 10.3424 0.525281 10.3581C0.71793 10.0761 1.02146 9.88148 1.42015 9.82924C2.04707 9.7465 2.77193 10.3081 2.77193 10.9632C2.77193 11.1693 2.76408 11.3755 2.77193 11.5817C2.77409 11.6485 2.77778 11.7156 2.78302 11.7827C2.86387 11.7703 3.14291 11.712 3.10641 11.7213C3.24824 11.6894 3.39053 11.6575 3.53329 11.6316C3.80263 11.5854 4.0789 11.5747 4.35147 11.5521C4.97793 11.5003 5.60438 11.4434 6.22899 11.3709C7.38396 11.2364 8.53524 11.0584 9.6879 10.9049C10.2557 10.8296 10.8221 10.7473 11.3848 10.6414C11.4957 10.6206 11.6236 10.6077 11.741 10.5809C11.771 10.5685 11.8019 10.5583 11.8334 10.5504C11.8999 10.5346 11.966 10.5189 12.0325 10.5041C12.2977 10.4385 12.561 10.3648 12.8225 10.2832C13.1117 10.1907 13.3981 10.09 13.679 9.97485C13.8084 9.92216 13.9368 9.86715 14.0634 9.8089C14.1147 9.78533 14.1655 9.76268 14.2163 9.73725L14.244 9.72385C14.3609 9.62816 14.536 9.56113 14.6668 9.49272C14.8562 9.39056 15.047 9.29025 15.2415 9.19826C15.5649 9.04433 15.8883 8.96713 16.2407 8.89317C16.5932 8.81921 16.955 8.97545 17.2165 9.24079C17.5766 9.20168 17.9409 9.24922 18.279 9.37947C19.6511 9.02307 21.136 9.07669 22.3907 9.79781C23.7896 10.6021 24.7515 11.8539 25.4505 13.2865C25.6548 13.699 25.8159 14.1315 25.9314 14.5771C26.8508 13.6748 27.4315 12.4308 27.4315 11.1125V3.95626C27.426 1.52986 25.4602 -0.231339 23.0348 0.0242895Z" fill="white"/>
<path fill-rule="evenodd" clip-rule="evenodd" d="M0.127925 12.8305L0.145481 12.8245C0.00226431 12.8305 -0.0194492 12.8462 0.013352 12.849C0.0516971 12.8448 0.0923521 12.8369 0.127925 12.8305Z" fill="white"/>
<path fill-rule="evenodd" clip-rule="evenodd" d="M1.22748 23.4633C0.835427 23.8469 0.524667 24.3056 0.313764 24.8121C0.102861 25.3186 -0.00385958 25.8624 -2.21394e-05 26.4111V29.9053C-2.21394e-05 32.1703 1.85532 34 4.09227 34H26.9542C29.1912 34 31.0465 32.1708 31.0465 29.9053V7.05726C31.0465 4.79219 29.1912 2.9353 26.9542 2.9353H4.09227C1.85532 2.9353 -2.21394e-05 4.79127 -2.21394e-05 7.05726V10.5515C0.00309 11.6575 0.44454 12.7171 1.22748 13.4979C2.0043 14.2545 3.03598 14.6928 4.11953 14.7266H14.6228C14.8607 14.7244 15.0882 14.629 15.2565 14.4608C15.4248 14.2926 15.5204 14.065 15.5228 13.827V10.606C15.5228 10.2237 15.7409 9.92326 16.0684 9.75962C16.4232 9.62325 16.8053 9.70507 17.0506 9.9778L24.9353 17.8399C25.0197 17.924 25.0866 18.024 25.1323 18.134C25.178 18.2441 25.2015 18.3621 25.2015 18.4813C25.2015 18.6004 25.178 18.7184 25.1323 18.8285C25.0866 18.9386 25.0197 19.0385 24.9353 19.1227L17.0511 26.9843C16.8057 27.2575 16.4237 27.3393 16.0689 27.2029C15.7413 27.0388 15.5233 26.7407 15.5233 26.3565V23.1355C15.5212 22.8972 15.4257 22.6692 15.2573 22.5007C15.0888 22.3322 14.861 22.2366 14.6228 22.2346H4.11953C3.03327 22.2558 1.99717 22.696 1.22748 23.4633Z" fill="#01A5FE"/>
<path d="M41.032 27.0172V10.5608H47.716C49.098 10.5608 50.2892 10.7999 51.2895 11.2782C52.2899 11.7565 53.0619 12.442 53.6055 13.3348C54.1497 14.2285 54.4218 15.2943 54.4218 16.5322C54.4218 17.7545 54.1497 18.8123 53.6055 19.7056C53.0612 20.599 52.2893 21.2847 51.2895 21.7627C50.2892 22.241 49.098 22.48 47.716 22.4796H43.0171L44.6055 20.7637V27.0172H41.032ZM44.6055 21.1872L43.0171 19.377H47.5174C48.6203 19.377 49.4439 19.1263 49.9881 18.6249C50.5323 18.1235 50.8043 17.4261 50.804 16.5327C50.804 15.6239 50.532 14.9187 49.9881 14.4169C49.4442 13.9152 48.6206 13.6644 47.5174 13.6644H43.0171L44.6055 11.8542V21.1872Z" fill="white"/>
<path d="M60.2673 27.2053C59.3412 27.2053 58.547 27.0369 57.8848 26.7C57.2226 26.3632 56.7152 25.9048 56.3626 25.3248C56.0096 24.7452 55.8331 24.0948 55.8331 23.3736C55.8331 22.6211 56.0059 21.9628 56.3515 21.3989C56.697 20.8349 57.2448 20.3921 57.9948 20.0703C58.7447 19.7495 59.7228 19.589 60.9289 19.5887H64.0833V21.7262H61.3058C60.4971 21.7262 59.9427 21.8671 59.6427 22.1491C59.496 22.2828 59.3797 22.4465 59.3017 22.629C59.2236 22.8116 59.1857 23.0087 59.1904 23.2072C59.1904 23.6775 59.3633 24.0496 59.7092 24.3236C60.0551 24.5975 60.5292 24.7347 61.1317 24.735C61.6778 24.743 62.2144 24.5918 62.6761 24.3C63.1316 24.0106 63.4624 23.5837 63.6685 23.0191L64.1979 24.7114C63.9478 25.5268 63.492 26.146 62.8304 26.5688C62.1688 26.9916 61.3145 27.2038 60.2673 27.2053ZM63.8851 27.0172V24.5487L63.6643 24.0083V19.5887C63.6643 18.8053 63.4401 18.194 62.9916 17.7549C62.5432 17.3157 61.8558 17.0963 60.9293 17.0966C60.2945 17.097 59.6643 17.2044 59.0652 17.4142C58.4548 17.6259 57.9364 17.9119 57.5101 18.2722L56.2748 15.7099C56.9216 15.2239 57.7009 14.8478 58.6129 14.5815C59.5156 14.3164 60.4515 14.1817 61.3922 14.1816C63.2014 14.1816 64.6058 14.6362 65.6056 15.5453C66.6053 16.4544 67.1053 17.872 67.1057 19.7981V27.0172H63.8851Z" fill="white"/>
<path d="M71.4955 31.7659C70.8726 31.7649 70.2541 31.6617 69.6646 31.4604C69.0613 31.2564 68.5685 30.9743 68.1863 30.614L69.4433 28.0046C69.7098 28.2562 70.021 28.4556 70.3609 28.5925C70.6857 28.7293 71.0341 28.8011 71.3865 28.8038C71.8716 28.8038 72.2576 28.6824 72.5447 28.4395C72.8317 28.1967 73.0935 27.7931 73.3301 27.2289L73.9477 25.6775L74.2125 25.2777L78.4697 14.3684H81.7784L76.4129 27.7928C76.0301 28.8117 75.5926 29.6111 75.1004 30.191C74.6082 30.771 74.064 31.1784 73.4677 31.4132C72.8748 31.6487 72.2174 31.7663 71.4955 31.7659ZM73.525 27.5109L68.2306 14.3698H71.7819L75.8853 24.9486L73.525 27.5109Z" fill="white"/>
<path d="M90.7969 27.2996C89.5763 27.2996 88.4551 27.0919 87.4332 26.6765C86.4309 26.2747 85.5222 25.6704 84.7638 24.9014C84.0016 24.1269 83.4016 23.2078 82.999 22.1982C82.5814 21.1636 82.3726 20.0274 82.3726 18.7895C82.3726 17.5515 82.5821 16.4153 83.0013 15.3808C83.4047 14.3693 84.0079 13.4497 84.7749 12.677C85.5417 11.9082 86.4575 11.3043 87.466 10.9024C88.4953 10.4873 89.6276 10.2796 90.863 10.2793C92.2311 10.2793 93.4631 10.5223 94.5589 11.0083C95.6378 11.4815 96.5873 12.2071 97.3276 13.124L95.031 15.3808C94.472 14.754 93.8618 14.2877 93.2002 13.982C92.5217 13.6728 91.7836 13.5163 91.0381 13.5234C90.2881 13.5234 89.6044 13.6488 88.9869 13.8997C88.3826 14.1415 87.8372 14.5102 87.3874 14.9809C86.9325 15.4613 86.5798 16.0292 86.3507 16.6501C86.1084 17.2933 85.987 18.0064 85.9867 18.7895C85.9867 19.5571 86.108 20.2624 86.3507 20.9052C86.5815 21.5287 86.9339 22.1001 87.3874 22.586C87.8324 23.0616 88.3755 23.4346 88.979 23.6792C89.5888 23.9301 90.2616 24.0555 90.9974 24.0555C91.7009 24.0559 92.399 23.9325 93.0597 23.6908C93.7293 23.4483 94.3801 23.0368 95.0121 22.4566L97.0416 25.207C96.2036 25.8813 95.2292 26.3985 94.1186 26.7588C93.0468 27.113 91.9257 27.2955 90.7969 27.2996ZM93.7749 24.711V18.5306H97.0398V25.207L93.7749 24.711Z" fill="white"/>
<path d="M100.106 27.0172V9.57434H103.547V27.0172H100.106Z" fill="white"/>
<path d="M112.393 27.2053C111.128 27.2053 110.006 26.9232 109.029 26.3589C108.064 25.8082 107.264 25.0086 106.712 24.0435C106.146 23.0644 105.863 21.9477 105.863 20.6935C105.863 19.4241 106.146 18.2993 106.712 17.319C107.262 16.356 108.063 15.5602 109.029 15.0165C110.007 14.4599 111.128 14.1816 112.393 14.1816C113.643 14.1816 114.761 14.4599 115.746 15.0165C116.713 15.5545 117.514 16.3471 118.063 17.3084C118.621 18.2803 118.901 19.4087 118.901 20.6935C118.901 21.9474 118.621 23.0641 118.063 24.0435C117.515 25.0115 116.714 25.812 115.746 26.3589C114.761 26.9232 113.643 27.2053 112.393 27.2053ZM112.393 24.1965C112.937 24.2046 113.473 24.0578 113.937 23.773C114.393 23.4911 114.753 23.0875 115.018 22.5624C115.282 22.0373 115.415 21.4143 115.415 20.6935C115.415 19.9569 115.282 19.3301 115.018 18.813C114.753 18.2959 114.393 17.8956 113.937 17.6121C113.469 17.3352 112.936 17.1891 112.393 17.1891C111.849 17.1891 111.316 17.3352 110.849 17.6121C110.393 17.894 110.029 18.2937 109.756 18.8112C109.484 19.3286 109.348 19.9554 109.349 20.6916C109.349 21.4127 109.485 22.0357 109.756 22.5605C110.028 23.0853 110.392 23.4889 110.849 23.7712C111.313 24.0565 111.848 24.204 112.393 24.1965Z" fill="white"/>
<path d="M121.194 27.0172V9.57434H124.636V16.9321L124.413 20.6699L124.48 24.4313V27.0172H121.194ZM128.209 27.2053C127.165 27.2053 126.268 26.9703 125.518 26.5004C124.768 26.0304 124.195 25.3133 123.797 24.349C123.4 23.3851 123.202 22.1666 123.202 20.6935C123.202 19.205 123.411 17.9827 123.83 17.0264C124.25 16.0701 124.835 15.357 125.586 14.8871C126.336 14.4168 127.211 14.1817 128.211 14.1817C129.328 14.1817 130.332 14.4481 131.222 14.9809C132.112 15.5137 132.818 16.266 133.34 17.2377C133.862 18.2099 134.123 19.3619 134.123 20.6935C134.123 22.01 133.862 23.1541 133.34 24.1258C132.818 25.0974 132.111 25.8538 131.22 26.395C130.33 26.9349 129.327 27.205 128.209 27.2053ZM127.614 24.1965C128.187 24.1965 128.698 24.0553 129.147 23.7731C129.595 23.4908 129.956 23.0872 130.228 22.5624C130.5 22.0385 130.636 21.4155 130.636 20.6935C130.636 19.957 130.5 19.3301 130.228 18.813C129.956 18.2959 129.595 17.8956 129.147 17.6121C128.698 17.3301 128.187 17.1891 127.614 17.1891C127.069 17.181 126.534 17.3277 126.069 17.6121C125.612 17.8953 125.252 18.2959 124.989 18.814C124.725 19.332 124.593 19.9588 124.591 20.6944C124.591 21.4155 124.724 22.0385 124.989 22.5633C125.254 23.0881 125.614 23.4917 126.069 23.774C126.534 24.0584 127.069 24.2049 127.614 24.1965Z" fill="white"/>
<path d="M139.879 27.2053C138.952 27.2053 138.158 27.0369 137.496 26.7C136.835 26.3632 136.327 25.9048 135.974 25.3248C135.621 24.7452 135.444 24.0948 135.444 23.3736C135.444 22.6211 135.617 21.9628 135.963 21.3989C136.308 20.8349 136.856 20.3921 137.607 20.0703C138.356 19.7495 139.334 19.589 140.54 19.5887H143.695V21.7262H140.915C140.106 21.7262 139.551 21.8671 139.25 22.1491C139.103 22.2828 138.987 22.4465 138.909 22.629C138.831 22.8116 138.793 23.0087 138.798 23.2072C138.798 23.6775 138.97 24.0496 139.316 24.3236C139.661 24.5975 140.136 24.7347 140.739 24.735C141.285 24.7429 141.821 24.5918 142.283 24.3C142.739 24.0106 143.07 23.5837 143.276 23.0191L143.805 24.7114C143.555 25.5268 143.099 26.146 142.438 26.5688C141.776 26.9916 140.923 27.2038 139.879 27.2053ZM143.496 27.0172V24.5487L143.276 24.0083V19.5887C143.276 18.8053 143.051 18.194 142.603 17.7549C142.155 17.3157 141.467 17.0963 140.54 17.0966C139.905 17.097 139.275 17.2044 138.676 17.4142C138.066 17.6259 137.548 17.9119 137.121 18.2722L135.886 15.7099C136.532 15.2239 137.312 14.8478 138.224 14.5815C139.127 14.3163 140.063 14.1817 141.004 14.1816C142.812 14.1816 144.217 14.6362 145.217 15.5453C146.217 16.4544 146.717 17.872 146.717 19.7981V27.0172H143.496Z" fill="white"/>
<path d="M149.827 27.0172V9.57434H153.268V27.0172H149.827Z" fill="white"/>
</g>
<defs>
<clipPath id="clip0_1_38">
<rect width="153.268" height="34" fill="white"/>
</clipPath>
</defs>
</svg>
