<svg width="291" height="64" viewBox="0 0 291 64" fill="none" xmlns="http://www.w3.org/2000/svg">
<g clip-path="url(#clip0_1_2847)">
<path fill-rule="evenodd" clip-rule="evenodd" d="M38.0735 21.916H38.041H37.9288C38.0371 22.6561 38.0613 23.4059 38.0007 24.1514L38.2033 24.2184L38.2191 24.2227L38.3147 24.2515L38.5779 24.3254C38.7656 24.3776 38.9536 24.4275 39.1419 24.4751C39.519 24.572 39.8991 24.6607 40.2822 24.7413C40.9383 24.8806 41.5979 25.0024 42.2654 25.0894C42.5049 25.1216 42.7461 25.1486 42.9864 25.1703C42.8233 24.9354 42.654 24.7048 42.4759 24.4794C42.3882 24.3686 42.2987 24.2596 42.2075 24.1523C42.1891 24.1296 42.1408 24.0757 42.0935 24.0217L42.0286 23.9547C41.9303 23.8555 41.8309 23.7587 41.7303 23.6641C41.3491 23.3261 40.9507 23.0078 40.5365 22.7104C40.4339 22.6513 40.3304 22.5938 40.2251 22.5364C40.0023 22.4204 39.7743 22.3163 39.541 22.224C39.4936 22.2058 39.4348 22.1771 39.3734 22.1492L39.2436 22.1135C38.9956 22.0492 38.7444 21.9978 38.491 21.9595C38.3524 21.9465 38.213 21.9273 38.0735 21.916Z" fill="white"/>
<path fill-rule="evenodd" clip-rule="evenodd" d="M43.7346 0.0459225L8.33729 3.74138C3.73227 4.21647 0 8.3087 0 12.8778V19.6091C0.321569 19.5061 0.660714 19.4683 0.997317 19.4977C1.36309 18.967 1.93937 18.6006 2.69635 18.5023C3.88664 18.3466 5.26289 19.4038 5.26289 20.6367C5.26289 21.0248 5.24798 21.4129 5.26289 21.801C5.26698 21.9269 5.274 22.053 5.28394 22.1795C5.43744 22.156 5.96724 22.0464 5.89794 22.0638C6.16723 22.0037 6.43739 21.9437 6.70843 21.895C7.21981 21.8079 7.74434 21.7879 8.26186 21.7453C9.45127 21.6478 10.6407 21.5408 11.8266 21.4042C14.0195 21.151 16.2053 20.816 18.3938 20.5271C19.4718 20.3853 20.5472 20.2304 21.6156 20.0311C21.8261 19.992 22.069 19.9676 22.2918 19.9171C22.3489 19.8938 22.4075 19.8747 22.4673 19.8597C22.5936 19.8301 22.719 19.8005 22.8453 19.7727C23.3488 19.6491 23.8488 19.5105 24.3452 19.3568C24.8943 19.1828 25.4382 18.9931 25.9715 18.7764C26.2171 18.6772 26.4609 18.5737 26.7013 18.464C26.7986 18.4196 26.8951 18.377 26.9916 18.3291L27.0442 18.3039C27.2661 18.1238 27.5986 17.9976 27.8468 17.8688C28.2064 17.6765 28.5687 17.4877 28.938 17.3146C29.552 17.0248 30.166 16.8795 30.8353 16.7403C31.5045 16.6011 32.1913 16.8952 32.6878 17.3946C33.3716 17.321 34.0633 17.4105 34.7052 17.6557C37.3104 16.9848 40.1295 17.0857 42.5119 18.4431C45.1679 19.9572 46.9941 22.3135 48.3212 25.01C48.7091 25.7865 49.0151 26.6006 49.2343 27.4394C50.9798 25.7409 52.0824 23.3994 52.0824 20.9178V7.44727C52.0719 2.87994 48.3396 -0.435261 43.7346 0.0459225Z" fill="white"/>
<path fill-rule="evenodd" clip-rule="evenodd" d="M0.242975 24.1514L0.276307 24.1401C0.00439065 24.1514 -0.0368353 24.181 0.0254422 24.1863C0.0982455 24.1784 0.175434 24.1636 0.242975 24.1514Z" fill="white"/>
<path fill-rule="evenodd" clip-rule="evenodd" d="M2.33059 44.1662C1.58622 44.8884 0.996201 45.7519 0.595772 46.7053C0.195343 47.6586 -0.00727927 48.6823 6.62701e-06 49.7151V56.2924C6.62701e-06 60.5561 3.52263 64 7.76978 64H51.1763C55.4235 64 58.9461 60.5569 58.9461 56.2924V13.2844C58.9461 9.02071 55.4235 5.52539 51.1763 5.52539H7.76978C3.52263 5.52539 6.62701e-06 9.01897 6.62701e-06 13.2844V19.8617C0.00591544 21.9436 0.844069 23.9382 2.33059 25.4079C3.80548 26.8321 5.76427 27.6572 7.82154 27.7207H27.7635C28.2151 27.7167 28.6471 27.537 28.9666 27.2204C29.2861 26.9038 29.4676 26.4754 29.4722 26.0275V19.9644C29.4722 19.2448 29.8862 18.6792 30.5081 18.3712C31.1817 18.1145 31.9071 18.2685 32.3729 18.7819L47.3432 33.5811C47.5034 33.7394 47.6304 33.9276 47.7171 34.1348C47.8038 34.3419 47.8485 34.5641 47.8485 34.7884C47.8485 35.0127 47.8038 35.2348 47.7171 35.442C47.6304 35.6492 47.5034 35.8373 47.3432 35.9957L32.3738 50.794C31.908 51.3083 31.1826 51.4623 30.509 51.2056C29.8871 50.8967 29.4731 50.3355 29.4731 49.6124V43.5493C29.4692 43.1007 29.2878 42.6716 28.968 42.3544C28.6483 42.0372 28.2157 41.8573 27.7635 41.8534H7.82154C5.75911 41.8934 3.79194 42.722 2.33059 44.1662Z" fill="#01A5FE"/>
<path d="M77.9048 50.8556V19.8789H90.5954C93.2192 19.8789 95.4808 20.3291 97.3801 21.2294C99.2794 22.1296 100.745 23.4201 101.777 25.1006C102.811 26.7828 103.327 28.7891 103.327 31.1193C103.327 33.4199 102.811 35.4111 101.777 37.0927C100.744 38.7744 99.2782 40.0651 97.3801 40.9648C95.4808 41.8651 93.2192 42.315 90.5954 42.3144H81.6739L84.6895 39.0845V50.8556H77.9048ZM84.6895 39.8815L81.6739 36.4741H90.2182C92.3122 36.4741 93.8759 36.0022 94.9092 35.0584C95.9425 34.1146 96.4588 32.8018 96.4582 31.1201C96.4582 29.4095 95.9419 28.0819 94.9092 27.1376C93.8765 26.1932 92.3128 25.721 90.2182 25.721H81.6739L84.6895 22.3135V39.8815Z" fill="white"/>
<path d="M114.426 51.2099C112.667 51.2099 111.159 50.8929 109.902 50.2589C108.645 49.6248 107.682 48.762 107.012 47.6702C106.342 46.5791 106.007 45.3548 106.007 43.9974C106.007 42.5808 106.335 41.3418 106.991 40.2802C107.647 39.2186 108.687 38.3851 110.111 37.7794C111.535 37.1756 113.392 36.8733 115.682 36.8728H121.671V40.8963H116.398C114.862 40.8963 113.809 41.1616 113.24 41.6924C112.961 41.9441 112.74 42.2521 112.592 42.5958C112.444 42.9394 112.372 43.3105 112.381 43.6842C112.381 44.5694 112.709 45.2698 113.366 45.7855C114.023 46.3012 114.923 46.5594 116.067 46.56C117.104 46.575 118.122 46.2905 118.999 45.7412C119.864 45.1965 120.492 44.3927 120.883 43.33L121.888 46.5156C121.414 48.0505 120.548 49.2159 119.292 50.0118C118.036 50.8077 116.414 51.207 114.426 51.2099ZM121.295 50.8558V46.2093L120.875 45.1921V36.8728C120.875 35.3982 120.45 34.2476 119.598 33.4209C118.747 32.5943 117.442 32.1813 115.683 32.1819C114.477 32.1825 113.281 32.3846 112.143 32.7797C110.984 33.1782 110 33.7165 109.191 34.3946L106.845 29.5715C108.073 28.6567 109.553 27.9487 111.285 27.4475C112.998 26.9484 114.775 26.695 116.562 26.6948C119.996 26.6948 122.663 27.5505 124.561 29.2617C126.459 30.973 127.409 33.6414 127.409 37.2669V50.8558H121.295Z" fill="white"/>
<path d="M135.744 59.7947C134.561 59.7928 133.387 59.5985 132.268 59.2195C131.122 58.8355 130.187 58.3045 129.461 57.6263L131.848 52.7144C132.354 53.188 132.944 53.5634 133.59 53.8212C134.206 54.0787 134.868 54.2138 135.537 54.2189C136.458 54.2189 137.191 53.9903 137.736 53.5332C138.281 53.0761 138.778 52.3165 139.227 51.2543L140.4 48.3342L140.902 47.5815L148.985 27.0464H155.267L145.08 52.3159C144.353 54.2337 143.523 55.7384 142.588 56.8302C141.654 57.9219 140.621 58.6888 139.488 59.1308C138.363 59.574 137.115 59.7953 135.744 59.7947ZM139.597 51.7851L129.545 27.049H136.288L144.079 46.962L139.597 51.7851Z" fill="white"/>
<path d="M172.39 51.3874C170.073 51.3874 167.944 50.9964 166.004 50.2145C164.101 49.4581 162.375 48.3207 160.936 46.8732C159.488 45.4151 158.349 43.6851 157.585 41.7846C156.792 39.8373 156.395 37.6985 156.395 35.3683C156.395 33.038 156.793 30.8993 157.589 28.9519C158.355 27.0479 159.5 25.3169 160.957 23.8625C162.413 22.4153 164.151 21.2785 166.066 20.5221C168.02 19.7407 170.17 19.3497 172.516 19.3491C175.113 19.3491 177.452 19.8065 179.533 20.7213C181.581 21.6122 183.384 22.978 184.79 24.7039L180.429 28.9519C179.368 27.772 178.209 26.8943 176.953 26.3189C175.665 25.7369 174.264 25.4423 172.848 25.4557C171.424 25.4557 170.126 25.6918 168.954 26.164C167.806 26.6191 166.771 27.3132 165.917 28.1992C165.053 29.1036 164.383 30.1725 163.949 31.3413C163.488 32.5519 163.258 33.8943 163.257 35.3683C163.257 36.8133 163.488 38.1408 163.949 39.3509C164.387 40.5245 165.056 41.6 165.917 42.5147C166.762 43.4099 167.793 44.1121 168.939 44.5725C170.097 45.0447 171.374 45.2808 172.771 45.2808C174.107 45.2816 175.432 45.0492 176.687 44.5943C177.958 44.1378 179.193 43.3633 180.393 42.271L184.247 47.4483C182.656 48.7176 180.806 49.6912 178.697 50.3694C176.662 51.036 174.533 51.3796 172.39 51.3874ZM178.044 46.5147V34.881H184.243V47.4483L178.044 46.5147Z" fill="white"/>
<path d="M190.065 50.8556V18.022H196.599V50.8556H190.065Z" fill="white"/>
<path d="M213.393 51.2099C210.991 51.2099 208.862 50.6789 207.006 49.6167C205.174 48.58 203.655 47.075 202.608 45.2582C201.533 43.4153 200.995 41.3133 200.996 38.9524C200.996 36.563 201.533 34.4457 202.608 32.6004C203.652 30.7877 205.173 29.2898 207.007 28.2663C208.863 27.2186 210.992 26.6948 213.393 26.6948C215.767 26.6948 217.889 27.2186 219.76 28.2663C221.595 29.279 223.116 30.771 224.158 32.5804C225.219 34.41 225.749 36.534 225.749 38.9524C225.749 41.3128 225.219 43.4147 224.158 45.2582C223.118 47.0804 221.598 48.5872 219.76 49.6167C217.889 50.6789 215.766 51.2099 213.393 51.2099ZM213.393 45.5462C214.426 45.5616 215.443 45.2852 216.325 44.7492C217.19 44.2184 217.874 43.4588 218.377 42.4703C218.879 41.4819 219.131 40.3092 219.131 38.9524C219.131 37.566 218.879 36.3861 218.377 35.4127C217.874 34.4393 217.19 33.6858 216.325 33.1521C215.437 32.6309 214.425 32.356 213.393 32.356C212.361 32.356 211.349 32.6309 210.461 33.1521C209.596 33.6829 208.904 34.4352 208.388 35.4092C207.871 36.3832 207.612 37.5631 207.613 38.9489C207.613 40.3063 207.871 41.479 208.388 42.4668C208.904 43.4547 209.595 44.2144 210.461 44.7457C211.342 45.2829 212.359 45.5605 213.393 45.5462Z" fill="white"/>
<path d="M230.104 50.8556V18.022H236.638V31.8719L236.216 38.9078L236.341 45.988V50.8556H230.104ZM243.423 51.2097C241.44 51.2097 239.737 50.7674 238.313 49.8828C236.89 48.9981 235.801 47.6482 235.046 45.8332C234.293 44.0186 233.916 41.725 233.915 38.9521C233.915 36.1503 234.313 33.8494 235.109 32.0494C235.905 30.2494 237.016 28.907 238.442 28.0224C239.866 27.1372 241.527 26.6946 243.426 26.6946C245.548 26.6946 247.453 27.1961 249.143 28.199C250.832 29.202 252.172 30.618 253.163 32.447C254.155 34.2772 254.65 36.4456 254.65 38.9521C254.65 41.4303 254.155 43.5839 253.163 45.4129C252.172 47.2419 250.831 48.6657 249.139 49.6844C247.45 50.7007 245.544 51.2091 243.423 51.2097ZM242.292 45.546C243.38 45.546 244.35 45.2803 245.202 44.749C246.054 44.2176 246.739 43.458 247.255 42.4701C247.771 41.4839 248.029 40.3113 248.029 38.9521C248.029 37.5657 247.771 36.3858 247.255 35.4124C246.739 34.4391 246.054 33.6855 245.202 33.1518C244.35 32.6211 243.38 32.3557 242.292 32.3557C241.258 32.3405 240.241 32.6166 239.36 33.1518C238.492 33.6849 237.808 34.4391 237.308 35.4142C236.808 36.3893 236.557 37.5692 236.554 38.9539C236.554 40.3113 236.805 41.4839 237.308 42.4718C237.811 43.4597 238.495 44.2193 239.36 44.7507C240.241 45.286 241.258 45.5618 242.292 45.546Z" fill="white"/>
<path d="M265.578 51.2099C263.819 51.2099 262.311 50.8929 261.055 50.2589C259.799 49.6248 258.836 48.762 258.165 47.6702C257.495 46.5791 257.16 45.3548 257.16 43.9974C257.16 42.5808 257.488 41.3418 258.144 40.2802C258.8 39.2186 259.84 38.3851 261.265 37.7794C262.688 37.1756 264.545 36.8733 266.835 36.8728H272.824V40.8963H267.547C266.011 40.8963 264.957 41.1616 264.385 41.6924C264.106 41.9441 263.885 42.2521 263.737 42.5958C263.589 42.9394 263.517 43.3105 263.526 43.6842C263.526 44.5694 263.854 45.2698 264.51 45.7855C265.166 46.3012 266.067 46.5594 267.212 46.56C268.248 46.5749 269.267 46.2904 270.143 45.7412C271.009 45.1965 271.637 44.3927 272.028 43.33L273.033 46.5156C272.558 48.0505 271.692 49.2159 270.437 50.0118C269.181 50.8077 267.562 51.207 265.578 51.2099ZM272.447 50.8558V46.2093L272.028 45.1921V36.8728C272.028 35.3982 271.602 34.2476 270.751 33.4209C269.9 32.5943 268.594 32.1813 266.835 32.1819C265.629 32.1826 264.433 32.3847 263.295 32.7797C262.137 33.1782 261.153 33.7165 260.343 34.3946L257.997 29.5715C259.225 28.6567 260.705 27.9487 262.437 27.4475C264.151 26.9484 265.928 26.6949 267.714 26.6948C271.148 26.6948 273.815 27.5505 275.714 29.2617C277.613 30.973 278.563 33.6414 278.562 37.2669V50.8558H272.447Z" fill="white"/>
<path d="M284.467 50.8556V18.022H291V50.8556H284.467Z" fill="white"/>
</g>
<defs>
<clipPath id="clip0_1_2847">
<rect width="291" height="64" fill="white"/>
</clipPath>
</defs>
</svg>
